<svg width="29" height="30" viewBox="0 0 29 30" fill="none" xmlns="http://www.w3.org/2000/svg">
<path d="M13.6538 2.6753V1.54358C13.6538 1.24343 13.7693 0.955577 13.9749 0.743338C14.1805 0.5311 14.4593 0.411865 14.75 0.411865C15.0407 0.411865 15.3195 0.5311 15.5251 0.743338C15.7307 0.955577 15.8462 1.24343 15.8462 1.54358V2.6753C15.8462 2.97545 15.7307 3.26331 15.5251 3.47555C15.3195 3.68779 15.0407 3.80702 14.75 3.80702C14.4593 3.80702 14.1805 3.68779 13.9749 3.47555C13.7693 3.26331 13.6538 2.97545 13.6538 2.6753ZM14.75 6.07046C13.0156 6.07046 11.3202 6.60146 9.87808 7.5963C8.43598 8.59113 7.31201 10.0051 6.64829 11.6595C5.98456 13.3139 5.8109 15.1343 6.14927 16.8905C6.48763 18.6468 7.32282 20.26 8.54922 21.5262C9.77562 22.7924 11.3381 23.6547 13.0392 24.004C14.7403 24.3534 16.5035 24.1741 18.1058 23.4888C19.7082 22.8035 21.0778 21.6431 22.0413 20.1542C23.0049 18.6653 23.5192 16.9149 23.5192 15.1242C23.5167 12.7238 22.592 10.4225 20.948 8.72514C19.304 7.0278 17.075 6.07308 14.75 6.07046ZM5.20524 6.87115C5.41092 7.08351 5.68989 7.20281 5.98077 7.20281C6.27165 7.20281 6.55061 7.08351 6.7563 6.87115C6.96198 6.6588 7.07753 6.37078 7.07753 6.07046C7.07753 5.77015 6.96198 5.48213 6.7563 5.26977L5.66014 4.13805C5.45446 3.9257 5.17549 3.80639 4.88462 3.80639C4.59374 3.80639 4.31477 3.9257 4.10909 4.13805C3.9034 4.35041 3.78785 4.63843 3.78785 4.93874C3.78785 5.23906 3.9034 5.52708 4.10909 5.73943L5.20524 6.87115ZM5.20524 23.3773L4.10909 24.509C3.9034 24.7214 3.78785 25.0094 3.78785 25.3097C3.78785 25.61 3.9034 25.898 4.10909 26.1104C4.31477 26.3227 4.59374 26.442 4.88462 26.442C5.17549 26.442 5.45446 26.3227 5.66014 26.1104L6.7563 24.9787C6.85814 24.8735 6.93893 24.7487 6.99405 24.6113C7.04916 24.4739 7.07753 24.3267 7.07753 24.178C7.07753 24.0293 7.04916 23.882 6.99405 23.7446C6.93893 23.6073 6.85814 23.4824 6.7563 23.3773C6.65445 23.2721 6.53355 23.1887 6.40048 23.1318C6.26742 23.0749 6.1248 23.0456 5.98077 23.0456C5.83674 23.0456 5.69412 23.0749 5.56106 23.1318C5.42799 23.1887 5.30708 23.2721 5.20524 23.3773ZM23.5192 7.20218C23.6632 7.2023 23.8058 7.17312 23.9389 7.11633C24.072 7.05953 24.1929 6.97622 24.2948 6.87115L25.3909 5.73943C25.5966 5.52708 25.7121 5.23906 25.7121 4.93874C25.7121 4.63843 25.5966 4.35041 25.3909 4.13805C25.1852 3.9257 24.9063 3.80639 24.6154 3.80639C24.3245 3.80639 24.0455 3.9257 23.8399 4.13805L22.7437 5.26977C22.5902 5.42805 22.4857 5.62978 22.4433 5.84943C22.401 6.06908 22.4227 6.29677 22.5057 6.50367C22.5887 6.71058 22.7294 6.88739 22.9098 7.01174C23.0902 7.13608 23.3023 7.20236 23.5192 7.20218ZM24.2948 23.3773C24.0891 23.1649 23.8101 23.0456 23.5192 23.0456C23.2284 23.0456 22.9494 23.1649 22.7437 23.3773C22.538 23.5896 22.4225 23.8777 22.4225 24.178C22.4225 24.4783 22.538 24.7663 22.7437 24.9787L23.8399 26.1104C23.9417 26.2155 24.0626 26.2989 24.1957 26.3558C24.3287 26.4128 24.4714 26.442 24.6154 26.442C24.7594 26.442 24.902 26.4128 25.0351 26.3558C25.1682 26.2989 25.2891 26.2155 25.3909 26.1104C25.4928 26.0052 25.5735 25.8804 25.6287 25.743C25.6838 25.6056 25.7121 25.4584 25.7121 25.3097C25.7121 25.161 25.6838 25.0137 25.6287 24.8764C25.5735 24.739 25.4928 24.6141 25.3909 24.509L24.2948 23.3773ZM2.69231 13.9925H1.59615C1.30544 13.9925 1.02662 14.1117 0.821056 14.324C0.615487 14.5362 0.5 14.8241 0.5 15.1242C0.5 15.4244 0.615487 15.7122 0.821056 15.9245C1.02662 16.1367 1.30544 16.2559 1.59615 16.2559H2.69231C2.98303 16.2559 3.26184 16.1367 3.46741 15.9245C3.67297 15.7122 3.78846 15.4244 3.78846 15.1242C3.78846 14.8241 3.67297 14.5362 3.46741 14.324C3.26184 14.1117 2.98303 13.9925 2.69231 13.9925ZM14.75 26.4414C14.4593 26.4414 14.1805 26.5606 13.9749 26.7729C13.7693 26.9851 13.6538 27.273 13.6538 27.5731V28.7049C13.6538 29.005 13.7693 29.2929 13.9749 29.5051C14.1805 29.7173 14.4593 29.8366 14.75 29.8366C15.0407 29.8366 15.3195 29.7173 15.5251 29.5051C15.7307 29.2929 15.8462 29.005 15.8462 28.7049V27.5731C15.8462 27.273 15.7307 26.9851 15.5251 26.7729C15.3195 26.5606 15.0407 26.4414 14.75 26.4414ZM27.9038 13.9925H26.8077C26.517 13.9925 26.2382 14.1117 26.0326 14.324C25.827 14.5362 25.7115 14.8241 25.7115 15.1242C25.7115 15.4244 25.827 15.7122 26.0326 15.9245C26.2382 16.1367 26.517 16.2559 26.8077 16.2559H27.9038C28.1946 16.2559 28.4734 16.1367 28.6789 15.9245C28.8845 15.7122 29 15.4244 29 15.1242C29 14.8241 28.8845 14.5362 28.6789 14.324C28.4734 14.1117 28.1946 13.9925 27.9038 13.9925Z" fill="#F7EFD8"/>
</svg>
