<svg width="17" height="17" viewBox="0 0 17 17" fill="none" xmlns="http://www.w3.org/2000/svg">
<path d="M8.5 10.1916L2.57916 16.1125C2.35764 16.334 2.07569 16.4448 1.73333 16.4448C1.39097 16.4448 1.10903 16.334 0.887498 16.1125C0.66597 15.8909 0.555206 15.609 0.555206 15.2666C0.555206 14.9243 0.66597 14.6423 0.887498 14.4208L6.80833 8.49997L0.887498 2.57913C0.66597 2.35761 0.555206 2.07566 0.555206 1.7333C0.555206 1.39094 0.66597 1.10899 0.887498 0.887467C1.10903 0.665939 1.39097 0.555176 1.73333 0.555176C2.07569 0.555176 2.35764 0.665939 2.57916 0.887467L8.5 6.8083L14.4208 0.887467C14.6424 0.665939 14.9243 0.555176 15.2667 0.555176C15.609 0.555176 15.891 0.665939 16.1125 0.887467C16.334 1.10899 16.4448 1.39094 16.4448 1.7333C16.4448 2.07566 16.334 2.35761 16.1125 2.57913L10.1917 8.49997L16.1125 14.4208C16.334 14.6423 16.4448 14.9243 16.4448 15.2666C16.4448 15.609 16.334 15.8909 16.1125 16.1125C15.891 16.334 15.609 16.4448 15.2667 16.4448C14.9243 16.4448 14.6424 16.334 14.4208 16.1125L8.5 10.1916Z" fill="currentColor"/>
</svg>
