<svg width="32" height="31" viewBox="0 0 32 31" fill="none" xmlns="http://www.w3.org/2000/svg">
<path d="M9.6924 5.52014e-05C9.37326 0.0423883 9.08342 0.208076 8.88501 0.461594L4.69178 5.73052L1.92255 3.88436C1.78615 3.79276 1.63301 3.72899 1.4719 3.69672C1.3108 3.66444 1.14491 3.6643 0.983751 3.69629C0.822592 3.72828 0.669337 3.79179 0.532779 3.88315C0.39622 3.97452 0.279047 4.09195 0.187982 4.22871C0.0969178 4.36546 0.0337542 4.51886 0.00211583 4.68009C-0.0295225 4.84132 -0.0290129 5.00721 0.0036156 5.16824C0.0362441 5.32927 0.100349 5.48227 0.192252 5.61847C0.284156 5.75467 0.402048 5.87138 0.539165 5.9619L4.23147 8.42344C4.49026 8.59574 4.80466 8.66372 5.11152 8.61372C5.41837 8.56372 5.69493 8.39945 5.88563 8.1539L10.8087 2.00006C10.9654 1.80894 11.0609 1.57508 11.0828 1.32893C11.1047 1.08278 11.052 0.835726 10.9316 0.619937C10.8111 0.404148 10.6285 0.229614 10.4075 0.119054C10.1865 0.00849383 9.93731 -0.0329715 9.6924 5.52014e-05ZM14.7693 3.69236V6.1539H32.0001V3.69236H14.7693ZM9.6924 11.077C9.37326 11.1193 9.08342 11.285 8.88501 11.5385L4.69178 16.8074L1.92255 14.9613C1.64705 14.7777 1.3099 14.711 0.985257 14.776C0.660617 14.841 0.375084 15.0322 0.191473 15.3077C0.00786147 15.5832 -0.0587882 15.9204 0.00618589 16.245C0.07116 16.5697 0.262436 16.8552 0.537934 17.0388L4.23024 19.5004C4.48903 19.6727 4.80343 19.7406 5.11028 19.6906C5.41714 19.6406 5.6937 19.4764 5.8844 19.2308L10.8075 13.077C10.964 12.8859 11.0595 12.6522 11.0814 12.4062C11.1033 12.1602 11.0507 11.9133 10.9305 11.6975C10.8102 11.4818 10.6278 11.3073 10.407 11.1966C10.1862 11.0859 9.9372 11.0442 9.6924 11.077ZM14.7693 14.7693V17.2308H32.0001V14.7693H14.7693ZM9.6924 22.1539C9.37326 22.1962 9.08342 22.3619 8.88501 22.6154L4.69178 27.8844L1.92255 26.0382C1.78614 25.9473 1.63315 25.8841 1.47233 25.8523C1.31151 25.8206 1.146 25.8208 0.985257 25.8529C0.660617 25.9179 0.375084 26.1092 0.191473 26.3847C0.00786147 26.6602 -0.0587882 26.9973 0.00618589 27.322C0.07116 27.6466 0.262436 27.9321 0.537934 28.1157L4.23024 30.5773C4.48903 30.7496 4.80343 30.8176 5.11028 30.7676C5.41714 30.7176 5.6937 30.5533 5.8844 30.3078L10.8075 24.1539C10.964 23.9629 11.0595 23.7291 11.0814 23.4831C11.1033 23.2371 11.0507 22.9902 10.9305 22.7745C10.8102 22.5588 10.6278 22.3842 10.407 22.2735C10.1862 22.1629 9.9372 22.1212 9.6924 22.1539ZM14.7693 25.8462V28.3077H32.0001V25.8462H14.7693Z" fill="#F7EFD8"/>
</svg>
